#!OML:ASF F:\VICON\USERDATA\INSTALL\rory3\rory3.ASF
:FULLY-SPECIFIED
:DEGREES
151
root -3.81762 15.8622 38.4851 -155.949 -18.0009 -181.981
lowerback 0.186152 1.01513 4.21176
upperback -2.11005 1.25132 4.09989
thorax -2.27218 0.482704 1.83666
lowerneck -10.5931 -9.25162 -11.7175
upperneck 27.5533 -15.6607 8.39662
head 12.4562 -7.89822 2.671
rclavicle -2.8625e-014 -9.54166e-015
rhumerus 13.7689 -0.369225 -43.3789
rradius 27.8738
rwrist 13.6696
rhand -30.2876 -60.1505
rfingers 7.12502
rthumb -3.59516 -629.9
lclavicle -2.8625e-014 -9.54166e-015
lhumerus -31.0126 5.47282 23.2129
lradius 25.2952
lwrist 6.36335
lhand -33.0415 -37.105
lfingers 7.12502
lthumb -6.25424 -7.2173
rfemur -73.9377 -9.3606 22.151
rtibia 43.9663
rfoot -0.266046 -15.1599
rtoes -10.6049
lfemur -20.5417 -6.69442 -22.8671
ltibia 34.8195
lfoot -34.571 12.4516
ltoes -5.84129
152
root -3.81349 15.8256 38.3721 -155.497 -18.0472 -182.092
lowerback -0.309578 1.19676 4.12007
upperback -1.87578 1.43644 4.24531
thorax -1.75754 0.581546 2.04347
lowerneck -10.0684 -9.38615 -11.7072
upperneck 26.8548 -15.8036 8.56357
head 12.1045 -7.94585 2.74339
rclavicle -5.80451e-014 -8.11041e-014
rhumerus 13.9709 -0.41804 -42.891
rradius 27.7528
rwrist 13.4038
rhand -29.5899 -61.748
rfingers 7.12502
rthumb -2.92141 -628.292
lclavicle -5.80451e-014 -8.11041e-014
lhumerus -28.934 5.02086 23.4596
lradius 25.361
lwrist 5.81496
lhand -33.976 -37.4229
lfingers 7.12502
lthumb -7.15637 -7.56387
rfemur -74.5681 -9.45633 22.2786
rtibia 44.0408
rfoot -0.233447 -15.0473
rtoes -10.1829
lfemur -20.5546 -6.66863 -22.9174
ltibia 34.764
lfoot -34.8678 12.3527
ltoes -4.93884
153
root -3.80501 15.7953 38.2492 -155.116 -18.1872 -182.376
lowerback 0.999866 0.97141 4.54314
upperback -2.12898 1.26387 4.05692
thorax -2.74309 0.477155 1.59683
lowerneck -11.4597 -9.33482 -11.4252
upperneck 27.5546 -15.6345 8.33587
head 12.5992 -7.79997 2.56345
rclavicle -4.6118e-014 -4.6118e-014
rhumerus 14.3502 -0.0388137 -43.4118
rradius 27.667
rwrist 13.2534
rhand -28.9222 -62.9847
rfingers 7.12502
rthumb -2.27653 -627.048
lclavicle -4.6118e-014 -4.6118e-014
lhumerus -27.6745 4.22856 22.8073
lradius 25.6774
lwrist 5.7334
lhand -34.5383 -37.8134
lfingers 7.12502
lthumb -7.69911 -7.97355
rfemur -75.0432 -9.6371 22.2341
rtibia 44.2084
rfoot -0.198039 -15.0104
rtoes -10.6057
lfemur -20.3895 -6.56599 -23.0693
ltibia 34.6463
lfoot -34.7856 12.9137
ltoes -6.95856
154
root -3.7971 15.775 38.1141 -154.95 -18.5627 -182.689
lowerback 0.552014 0.742643 4.15244
upperback -1.39701 0.867008 4.56464
thorax -1.7503 0.301084 2.35473
lowerneck -11.859 -9.44482 -11.8661
upperneck 26.8636 -15.383 8.3932
head 12.4209 -7.66304 2.68717
rclavicle -3.89618e-014 -7.95139e-015
rhumerus 15.8147 -0.00159763 -42.9624
rradius 27.4551
rwrist 13.3089
rhand -29.5419 -62.179
rfingers 7.12502
rthumb -2.87501 -627.861
lclavicle -3.89618e-014 -7.95139e-015
lhumerus -26.2422 5.00916 23.0195
lradius 25.9746
lwrist 5.48492
lhand -34.6731 -37.7629
lfingers 7.12502
lthumb -7.82924 -7.92787
rfemur -75.2192 -10.0257 22.1875
rtibia 44.4513
rfoot -0.270416 -14.9823
rtoes -10.6809
lfemur -19.8764 -6.70815 -23.1439
ltibia 34.4987
lfoot -34.9673 13.1562
ltoes -7.6162
155
root -3.7869 15.7557 37.9737 -154.968 -19.134 -183.038
lowerback 0.731664 0.472881 4.0183
upperback -0.848015 0.47606 4.89092
thorax -1.28536 0.111284 2.77353
lowerneck -12.1638 -9.62356 -12.1502
upperneck 26.2922 -15.3831 8.55039
head 12.2986 -7.62501 2.78028
rclavicle 2.46493e-014 1.59028e-014
rhumerus 17.0447 -0.152668 -42.8789
rradius 26.9753
rwrist 13.8689
rhand -30.5989 -61.0567
rfingers 7.12502
rthumb -3.89579 -628.999
lclavicle 2.46493e-014 1.59028e-014
lhumerus -24.644 5.20082 23.1593
lradius 26.2795
lwrist 5.19148
lhand -35.2799 -36.7118
lfingers 7.12502
lthumb -8.41487 -6.89942
rfemur -75.159 -10.5927 22.1466
rtibia 44.7672
rfoot -0.651844 -15.0005
rtoes -9.48509
lfemur -19.1045 -7.05616 -23.1493
ltibia 34.3116
lfoot -35.266 13.0339
ltoes -6.81683
156
root -3.78371 15.7027 37.8648 -154.131 -18.7422 -183.147
lowerback 0.292391 0.810046 3.97657
upperback -1.12598 0.906684 4.8177
thorax -1.3322 0.323452 2.71709
lowerneck -10.3003 -9.65107 -11.9864
upperneck 25.2926 -15.6593 8.79647
head 11.5763 -7.79618 2.90352
rclavicle 1.19271e-014 -2.22639e-014
rhumerus 16.6699 -0.31964 -42.9591
rradius 26.8559
rwrist 13.787
rhand -32.446 -57.4866
rfingers 7.12502
rthumb -5.67936 -807.39
lclavicle 1.19271e-014 -2.22639e-014
lhumerus -22.6094 3.71653 23.3022
lradius 26.3774
lwrist 4.15506
lhand -36.6579 -38.7239
lfingers 7.12502
lthumb -9.74457 -8.96929
rfemur -76.4606 -10.6378 22.6613
rtibia 45.0272
rfoot -0.576381 -14.4094
rtoes -9.05599
lfemur -19.5242 -7.06415 -23.3112
ltibia 34.249
lfoot -35.1953 13.7985
ltoes -7.10379
157
root -3.77957 15.6634 37.7427 -153.509 -18.6503 -183.307
lowerback 1.12998 0.933147 4.43723
upperback -1.80349 1.18601 4.51896
thorax -2.49236 0.440524 2.13561
lowerneck -9.31818 -9.59321 -11.6007
upperneck 25.2172 -15.863 8.79694
head 11.341 -7.92109 2.86394
rclavicle -3.97569e-015 -2.22639e-014
rhumerus 15.8432 -0.0675291 -43.4607
rradius 26.8058
rwrist 13.8759
rhand -33.3753 -58.033
rfingers 7.12502
rthumb -6.57651 -807.911
lclavicle -3.97569e-015 -2.22639e-014
lhumerus -20.8119 1.83099 22.8675
lradius 27.2796
lwrist 4.6013
lhand -35.5869 -38.0403
lfingers 7.12502
lthumb -8.71121 -8.24006
rfemur -77.3535 -10.7622 23.002
rtibia 45.3546
rfoot -0.523808 -14.1871
rtoes -9.60482
lfemur -19.6904 -6.90803 -23.3717
ltibia 34.2038
lfoot -35.2262 14.0542
ltoes -9.01194
158
root -3.77548 15.6318 37.612 -153.111 -18.8468 -183.383
lowerback 1.13913 0.679803 4.72798
upperback -1.10202 0.795957 4.86119
thorax -1.77172 0.249448 2.33843
lowerneck -11.3699 -9.76053 -11.8267
upperneck 25.3517 -15.5821 8.60867
head 11.7713 -7.69275 2.7684
rclavicle 1.59028e-014 1.1291e-013
rhumerus 17.7962 -0.273879 -43.6051
rradius 26.2839
rwrist 14.772
rhand -33.2616 -59.0779
rfingers 7.12502
rthumb -6.46673 -808.959
lclavicle 1.59028e-014 1.1291e-013
lhumerus -19.499 2.96735 22.689
lradius 25.9642
lwrist 2.03929
lhand -36.8825 -50.1997
lfingers 7.12502
lthumb -9.96128 -20.4554
rfemur -77.8853 -10.9774 23.3914
rtibia 45.7081
rfoot -0.455921 -14.1231
rtoes -10.0267
lfemur -19.6618 -6.77748 -23.1894
ltibia 34.255
lfoot -35.3748 13.9207
ltoes -9.99956
159
root -3.76816 15.5999 37.474 -152.84 -19.151 -183.622
lowerback 1.18883 0.569301 4.87344
upperback -0.660163 0.614899 5.03404
thorax -1.34266 0.161563 2.43984
lowerneck -11.9137 -9.87687 -11.8163
upperneck 25.0015 -15.5138 8.57203
head 11.7333 -7.61274 2.74199
rclavicle -2.70347e-014 -1.59028e-015
rhumerus 18.7474 -0.611925 -43.7171
rradius 26.1534
rwrist 14.8593
rhand -30.4771 -61.3293
rfingers 7.12502
rthumb -3.77824 -988.724
lclavicle -2.70347e-014 -1.59028e-015
lhumerus -17.523 2.40243 22.8812
lradius 27.1836
lwrist 3.41891
lhand -37.5669 -43.9776
lfingers 7.12502
lthumb -10.6215 -14.266
rfemur -78.2711 -11.4015 23.7416
rtibia 46.1552
rfoot -0.671641 -13.9883
rtoes -10.2957
lfemur -19.3596 -6.64287 -23.0859
ltibia 34.269
lfoot -35.5948 13.4044
ltoes -10.3313
